# xmcd
#
# Track frame offsets: 
#        182
#        17080
#        32315
#        64165
#        97832
#        127410
#
# Disc length: 1930 seconds
#
# Revision: 1
# Processed by: cddbd v1.5.2PL0 Copyright (c) Steve Scherf et al.
# Submitted via: ExactAudioCopy v0.99pb4
#
DISCID=46078806
DTITLE=Escanor - Open Your Eyes
DYEAR=2002
DGENRE=Trance
TTITLE0=Open Your Eyes (DJ Marc Aurel Radio Mix)
TTITLE1=Open Your Eyes (Original Radio Mix)
TTITLE2=Open Your Eyes (Oliver Lieb Mix)
TTITLE3=Open Your Eyes (Escanor Latenite Mix)
TTITLE4=Open Your Eyes (DJ Marc Aurel Extended Club Mix)
TTITLE5=Open Your Eyes (Escanor Accoustic Mix)
EXTD=
EXTT0=
EXTT1=
EXTT2=
EXTT3=
EXTT4=
EXTT5=
PLAYORDER=
